<svg width="76" height="100" viewBox="0 0 76 100" fill="none" xmlns="http://www.w3.org/2000/svg">
<path d="M73.2693 28.9717C74.7774 28.9717 75.9999 27.7407 75.9999 26.2222C75.9999 24.7037 74.7774 23.4727 73.2693 23.4727C71.7613 23.4727 70.5387 24.7037 70.5387 26.2222C70.5387 27.7407 71.7613 28.9717 73.2693 28.9717Z" fill="#596E79"/>
<path d="M73.2693 52.6468C74.7774 52.6468 75.9999 51.4157 75.9999 49.8972C75.9999 48.3787 74.7774 47.1477 73.2693 47.1477C71.7613 47.1477 70.5387 48.3787 70.5387 49.8972C70.5387 51.4157 71.7613 52.6468 73.2693 52.6468Z" fill="#596E79"/>
<path d="M73.2693 76.3252C74.7774 76.3252 75.9999 75.0942 75.9999 73.5757C75.9999 72.0572 74.7774 70.8262 73.2693 70.8262C71.7613 70.8262 70.5387 72.0572 70.5387 73.5757C70.5387 75.0942 71.7613 76.3252 73.2693 76.3252Z" fill="#596E79"/>
<path d="M73.2693 100C74.7774 100 75.9999 98.769 75.9999 97.2505C75.9999 95.732 74.7774 94.501 73.2693 94.501C71.7613 94.501 70.5387 95.732 70.5387 97.2505C70.5387 98.769 71.7613 100 73.2693 100Z" fill="whhite"/>
<path d="M49.7578 28.9717C51.2659 28.9717 52.4884 27.7407 52.4884 26.2222C52.4884 24.7037 51.2659 23.4727 49.7578 23.4727C48.2497 23.4727 47.0272 24.7037 47.0272 26.2222C47.0272 27.7407 48.2497 28.9717 49.7578 28.9717Z" fill="#596E79"/>
<path d="M49.7578 52.6468C51.2659 52.6468 52.4884 51.4157 52.4884 49.8972C52.4884 48.3787 51.2659 47.1477 49.7578 47.1477C48.2497 47.1477 47.0272 48.3787 47.0272 49.8972C47.0272 51.4157 48.2497 52.6468 49.7578 52.6468Z" fill="#596E79"/>
<path d="M49.7578 76.3252C51.2659 76.3252 52.4884 75.0942 52.4884 73.5757C52.4884 72.0572 51.2659 70.8262 49.7578 70.8262C48.2497 70.8262 47.0272 72.0572 47.0272 73.5757C47.0272 75.0942 48.2497 76.3252 49.7578 76.3252Z" fill="#596E79"/>
<path d="M49.7578 100C51.2659 100 52.4884 98.769 52.4884 97.2505C52.4884 95.732 51.2659 94.501 49.7578 94.501C48.2497 94.501 47.0272 95.732 47.0272 97.2505C47.0272 98.769 48.2497 100 49.7578 100Z" fill="#596E79"/>
<path d="M26.2423 28.9717C27.7503 28.9717 28.9729 27.7407 28.9729 26.2222C28.9729 24.7037 27.7503 23.4727 26.2423 23.4727C24.7342 23.4727 23.5117 24.7037 23.5117 26.2222C23.5117 27.7407 24.7342 28.9717 26.2423 28.9717Z" fill="#596E79"/>
<path d="M26.2423 52.6468C27.7503 52.6468 28.9729 51.4157 28.9729 49.8972C28.9729 48.3787 27.7503 47.1477 26.2423 47.1477C24.7342 47.1477 23.5117 48.3787 23.5117 49.8972C23.5117 51.4157 24.7342 52.6468 26.2423 52.6468Z" fill="#596E79"/>
<path d="M26.2423 76.3252C27.7503 76.3252 28.9729 75.0942 28.9729 73.5757C28.9729 72.0572 27.7503 70.8262 26.2423 70.8262C24.7342 70.8262 23.5117 72.0572 23.5117 73.5757C23.5117 75.0942 24.7342 76.3252 26.2423 76.3252Z" fill="#596E79"/>
<path d="M26.2423 100C27.7503 100 28.9729 98.769 28.9729 97.2505C28.9729 95.732 27.7503 94.501 26.2423 94.501C24.7342 94.501 23.5117 95.732 23.5117 97.2505C23.5117 98.769 24.7342 100 26.2423 100Z" fill="#596E79"/>
</svg>
