<svg width="22" height="22" viewBox="0 0 22 22" fill="none" xmlns="http://www.w3.org/2000/svg">
<path d="M18.3333 6.41675H3.66668C2.65415 6.41675 1.83334 7.23756 1.83334 8.25008V17.4167C1.83334 18.4293 2.65415 19.2501 3.66668 19.2501H18.3333C19.3459 19.2501 20.1667 18.4293 20.1667 17.4167V8.25008C20.1667 7.23756 19.3459 6.41675 18.3333 6.41675Z" stroke="#ACB9CF" stroke-width="2" stroke-linecap="round" stroke-linejoin="round"/>
<path d="M15 8V3.55556C15 3.40821 14.7893 3.26691 14.4142 3.16272C14.0391 3.05853 13.5304 3 13 3H9C8.46957 3 7.96086 3.05853 7.58579 3.16272C7.21071 3.26691 7 3.40821 7 3.55556V8" stroke="#ACB9CF" stroke-width="2" stroke-linecap="round" stroke-linejoin="round"/>
</svg>
