<svg width="86" height="118" viewBox="0 0 86 118" fill="none" xmlns="http://www.w3.org/2000/svg">
<g clip-path="url(#clip0_1_469)">
<path d="M66.7802 22.8223C68.8042 22.8223 70.4449 21.1728 70.4449 19.138C70.4449 17.1032 68.8042 15.4536 66.7802 15.4536C64.7562 15.4536 63.1155 17.1032 63.1155 19.138C63.1155 21.1728 64.7562 22.8223 66.7802 22.8223Z" fill="white"/>
<path d="M66.7802 54.5465C68.8042 54.5465 70.4449 52.8969 70.4449 50.8621C70.4449 48.8273 68.8042 47.1777 66.7802 47.1777C64.7562 47.1777 63.1155 48.8273 63.1155 50.8621C63.1155 52.8969 64.7562 54.5465 66.7802 54.5465Z" fill="white"/>
<path d="M66.7802 86.2755C68.8042 86.2755 70.4449 84.6259 70.4449 82.5911C70.4449 80.5563 68.8042 78.9067 66.7802 78.9067C64.7562 78.9067 63.1155 80.5563 63.1155 82.5911C63.1155 84.6259 64.7562 86.2755 66.7802 86.2755Z" fill="white"/>
<path d="M66.7802 118C68.8042 118 70.4449 116.351 70.4449 114.316C70.4449 112.281 68.8042 110.631 66.7802 110.631C64.7562 110.631 63.1155 112.281 63.1155 114.316C63.1155 116.351 64.7562 118 66.7802 118Z" fill="white"/>
<path d="M35.2199 22.8223C37.2439 22.8223 38.8846 21.1728 38.8846 19.138C38.8846 17.1032 37.2439 15.4536 35.2199 15.4536C33.1959 15.4536 31.5552 17.1032 31.5552 19.138C31.5552 21.1728 33.1959 22.8223 35.2199 22.8223Z" fill="white"/>
<path d="M35.2199 54.5465C37.2439 54.5465 38.8846 52.8969 38.8846 50.8621C38.8846 48.8273 37.2439 47.1777 35.2199 47.1777C33.1959 47.1777 31.5552 48.8273 31.5552 50.8621C31.5552 52.8969 33.1959 54.5465 35.2199 54.5465Z" fill="white"/>
<path d="M35.2199 86.2755C37.2439 86.2755 38.8846 84.6259 38.8846 82.5911C38.8846 80.5563 37.2439 78.9067 35.2199 78.9067C33.1959 78.9067 31.5552 80.5563 31.5552 82.5911C31.5552 84.6259 33.1959 86.2755 35.2199 86.2755Z" fill="white"/>
<path d="M35.2199 118C37.2439 118 38.8846 116.351 38.8846 114.316C38.8846 112.281 37.2439 110.631 35.2199 110.631C33.1959 110.631 31.5552 112.281 31.5552 114.316C31.5552 116.351 33.1959 118 35.2199 118Z" fill="white"/>
<path d="M3.66473 22.8223C5.6887 22.8223 7.32946 21.1728 7.32946 19.138C7.32946 17.1032 5.6887 15.4536 3.66473 15.4536C1.64075 15.4536 0 17.1032 0 19.138C0 21.1728 1.64075 22.8223 3.66473 22.8223Z" fill="white"/>
<path d="M3.66473 54.5465C5.6887 54.5465 7.32946 52.8969 7.32946 50.8621C7.32946 48.8273 5.6887 47.1777 3.66473 47.1777C1.64075 47.1777 0 48.8273 0 50.8621C0 52.8969 1.64075 54.5465 3.66473 54.5465Z" fill="white"/>
<path d="M3.66473 86.2755C5.6887 86.2755 7.32946 84.6259 7.32946 82.5911C7.32946 80.5563 5.6887 78.9067 3.66473 78.9067C1.64075 78.9067 0 80.5563 0 82.5911C0 84.6259 1.64075 86.2755 3.66473 86.2755Z" fill="white"/>
<path d="M3.66473 118C5.6887 118 7.32946 116.351 7.32946 114.316C7.32946 112.281 5.6887 110.631 3.66473 110.631C1.64075 110.631 0 112.281 0 114.316C0 116.351 1.64075 118 3.66473 118Z" fill="white"/>
</g>
<defs>
<clipPath id="clip0_1_469">
<path d="M0 0H55C72.1208 0 86 13.8792 86 31V87C86 104.121 72.1208 118 55 118H31C13.8792 118 0 104.121 0 87V0Z" fill="white"/>
</clipPath>
</defs>
</svg>
