<svg width="102" height="134" viewBox="0 0 102 134" fill="none" xmlns="http://www.w3.org/2000/svg">
<g clip-path="url(#clip0_1_21)">
<path d="M98.3351 7.09309C100.359 7.09309 102 5.44355 102 3.40873C102 1.37391 100.359 -0.275635 98.3351 -0.275635C96.3112 -0.275635 94.6704 1.37391 94.6704 3.40873C94.6704 5.44355 96.3112 7.09309 98.3351 7.09309Z" fill="white"/>
<path d="M98.3351 38.8221C100.359 38.8221 102 37.1726 102 35.1377C102 33.1029 100.359 31.4534 98.3351 31.4534C96.3112 31.4534 94.6704 33.1029 94.6704 35.1377C94.6704 37.1726 96.3112 38.8221 98.3351 38.8221Z" fill="white"/>
<path d="M98.3351 70.5465C100.359 70.5465 102 68.8969 102 66.8621C102 64.8273 100.359 63.1777 98.3351 63.1777C96.3112 63.1777 94.6704 64.8273 94.6704 66.8621C94.6704 68.8969 96.3112 70.5465 98.3351 70.5465Z" fill="white"/>
<path d="M98.3351 102.276C100.359 102.276 102 100.626 102 98.5913C102 96.5565 100.359 94.907 98.3351 94.907C96.3112 94.907 94.6704 96.5565 94.6704 98.5913C94.6704 100.626 96.3112 102.276 98.3351 102.276Z" fill="white"/>
<path d="M98.3351 134C100.359 134 102 132.351 102 130.316C102 128.281 100.359 126.631 98.3351 126.631C96.3112 126.631 94.6704 128.281 94.6704 130.316C94.6704 132.351 96.3112 134 98.3351 134Z" fill="white"/>
<path d="M66.7802 7.09309C68.8042 7.09309 70.4449 5.44355 70.4449 3.40873C70.4449 1.37391 68.8042 -0.275635 66.7802 -0.275635C64.7562 -0.275635 63.1155 1.37391 63.1155 3.40873C63.1155 5.44355 64.7562 7.09309 66.7802 7.09309Z" fill="white"/>
<path d="M66.7802 38.8221C68.8042 38.8221 70.4449 37.1726 70.4449 35.1377C70.4449 33.1029 68.8042 31.4534 66.7802 31.4534C64.7562 31.4534 63.1155 33.1029 63.1155 35.1377C63.1155 37.1726 64.7562 38.8221 66.7802 38.8221Z" fill="white"/>
<path d="M66.7802 70.5465C68.8042 70.5465 70.4449 68.8969 70.4449 66.8621C70.4449 64.8273 68.8042 63.1777 66.7802 63.1777C64.7562 63.1777 63.1155 64.8273 63.1155 66.8621C63.1155 68.8969 64.7562 70.5465 66.7802 70.5465Z" fill="white"/>
<path d="M66.7802 102.276C68.8042 102.276 70.4449 100.626 70.4449 98.5913C70.4449 96.5565 68.8042 94.907 66.7802 94.907C64.7562 94.907 63.1155 96.5565 63.1155 98.5913C63.1155 100.626 64.7562 102.276 66.7802 102.276Z" fill="white"/>
<path d="M66.7802 134C68.8042 134 70.4449 132.351 70.4449 130.316C70.4449 128.281 68.8042 126.631 66.7802 126.631C64.7562 126.631 63.1155 128.281 63.1155 130.316C63.1155 132.351 64.7562 134 66.7802 134Z" fill="white"/>
<path d="M35.2199 7.09309C37.2439 7.09309 38.8846 5.44355 38.8846 3.40873C38.8846 1.37391 37.2439 -0.275635 35.2199 -0.275635C33.1959 -0.275635 31.5552 1.37391 31.5552 3.40873C31.5552 5.44355 33.1959 7.09309 35.2199 7.09309Z" fill="white"/>
<path d="M35.2199 38.8221C37.2439 38.8221 38.8846 37.1726 38.8846 35.1377C38.8846 33.1029 37.2439 31.4534 35.2199 31.4534C33.1959 31.4534 31.5552 33.1029 31.5552 35.1377C31.5552 37.1726 33.1959 38.8221 35.2199 38.8221Z" fill="white"/>
<path d="M35.2199 70.5465C37.2439 70.5465 38.8846 68.8969 38.8846 66.8621C38.8846 64.8273 37.2439 63.1777 35.2199 63.1777C33.1959 63.1777 31.5552 64.8273 31.5552 66.8621C31.5552 68.8969 33.1959 70.5465 35.2199 70.5465Z" fill="white"/>
<path d="M35.2199 102.276C37.2439 102.276 38.8846 100.626 38.8846 98.5913C38.8846 96.5565 37.2439 94.907 35.2199 94.907C33.1959 94.907 31.5552 96.5565 31.5552 98.5913C31.5552 100.626 33.1959 102.276 35.2199 102.276Z" fill="white"/>
<path d="M35.2199 134C37.2439 134 38.8846 132.351 38.8846 130.316C38.8846 128.281 37.2439 126.631 35.2199 126.631C33.1959 126.631 31.5552 128.281 31.5552 130.316C31.5552 132.351 33.1959 134 35.2199 134Z" fill="white"/>
<path d="M3.66473 7.09309C5.6887 7.09309 7.32946 5.44355 7.32946 3.40873C7.32946 1.37391 5.6887 -0.275635 3.66473 -0.275635C1.64075 -0.275635 0 1.37391 0 3.40873C0 5.44355 1.64075 7.09309 3.66473 7.09309Z" fill="white"/>
<path d="M3.66473 38.8221C5.6887 38.8221 7.32946 37.1726 7.32946 35.1377C7.32946 33.1029 5.6887 31.4534 3.66473 31.4534C1.64075 31.4534 0 33.1029 0 35.1377C0 37.1726 1.64075 38.8221 3.66473 38.8221Z" fill="white"/>
<path d="M3.66473 70.5465C5.6887 70.5465 7.32946 68.8969 7.32946 66.8621C7.32946 64.8273 5.6887 63.1777 3.66473 63.1777C1.64075 63.1777 0 64.8273 0 66.8621C0 68.8969 1.64075 70.5465 3.66473 70.5465Z" fill="white"/>
<path d="M3.66473 102.276C5.6887 102.276 7.32946 100.626 7.32946 98.5913C7.32946 96.5565 5.6887 94.907 3.66473 94.907C1.64075 94.907 0 96.5565 0 98.5913C0 100.626 1.64075 102.276 3.66473 102.276Z" fill="white"/>
<path d="M3.66473 134C5.6887 134 7.32946 132.351 7.32946 130.316C7.32946 128.281 5.6887 126.631 3.66473 126.631C1.64075 126.631 0 128.281 0 130.316C0 132.351 1.64075 134 3.66473 134Z" fill="white"/>
</g>
<defs>
<clipPath id="clip0_1_21">
<rect width="102" height="134" rx="33" fill="white"/>
</clipPath>
</defs>
</svg>
