<svg width="147" height="35" viewBox="0 0 147 35" fill="none" xmlns="http://www.w3.org/2000/svg">
<g clip-path="url(#clip0_1_46)">
<path d="M22.2863 28.0176H9.20142L6.88862 34.6712H0L12.0226 1.96875H19.4673L31.4423 34.6712H24.5537L22.2863 28.0176ZM20.5296 23.0038L15.7201 9.04329L10.9106 23.006H20.5296V23.0038Z" fill="#03334E"/>
<path d="M50.5375 9.93326C52.078 10.9636 53.1727 12.3536 53.8196 14.103V8.71434H60.2928V34.6711H53.8196V29.2364C53.1727 30.9859 52.078 32.3846 50.5375 33.4303C48.995 34.476 47.1473 35 44.9881 35C42.8311 35 40.8883 34.4694 39.1618 33.4062C37.4353 32.3451 36.0874 30.8061 35.116 28.7914C34.1446 26.7767 33.66 24.4112 33.66 21.6927C33.66 18.9743 34.1446 16.6088 35.116 14.5941C36.0874 12.5794 37.4353 11.0404 39.1618 9.9793C40.8883 8.91823 42.8289 8.3855 44.9881 8.3855C47.1473 8.3855 48.9971 8.90288 50.5375 9.93326ZM42.1236 16.1638C40.8904 17.5076 40.2738 19.3492 40.2738 21.6927C40.2738 24.0363 40.8904 25.8712 42.1236 27.1976C43.3568 28.5261 44.9903 29.1882 47.024 29.1882C48.9971 29.1882 50.6219 28.5086 51.9027 27.1494C53.1813 25.7901 53.8218 23.9705 53.8218 21.6905C53.8218 19.3799 53.1813 17.5449 51.9027 16.1857C50.6241 14.8265 48.9971 14.1469 47.024 14.1469C44.9903 14.149 43.3547 14.8221 42.1236 16.1638Z" fill="#03334E"/>
<path d="M84.7534 1.59375V24.9264C84.7534 28.1118 83.8815 30.5891 82.1399 32.3517C80.3983 34.1165 77.986 34.9999 74.903 34.9999C71.5733 34.9999 68.9382 34.031 66.9953 32.0952C65.0525 30.1594 64.0833 27.3949 64.0833 23.8017H70.511C70.511 25.4876 70.8572 26.7854 71.5517 27.6908C72.2462 28.5963 73.2695 29.0501 74.626 29.0501C75.8592 29.0501 76.7679 28.6839 77.3542 27.9495C77.9405 27.2151 78.2326 26.2088 78.2326 24.9264V1.59375H84.7534Z" fill="#03334E"/>
<path d="M141.163 9.97933C142.889 11.0426 144.237 12.5794 145.208 14.5941C146.18 16.6088 146.664 18.9743 146.664 21.6928C146.664 24.4112 146.18 26.7767 145.208 28.7914C144.237 30.8061 142.889 32.3451 141.163 33.4062C139.436 34.4695 137.493 35 135.336 35C133.179 35 131.336 34.4782 129.811 33.4303C128.285 32.3846 127.197 30.9859 126.55 29.2365V34.6712H120.032V0H126.55V14.103C127.197 12.3536 128.283 10.9637 129.811 9.93329C131.336 8.90291 133.177 8.38772 135.336 8.38772C137.495 8.38553 139.436 8.91826 141.163 9.97933ZM128.424 16.1879C127.145 17.5471 126.505 19.3821 126.505 21.6928C126.505 23.9728 127.145 25.7924 128.424 27.1516C129.703 28.5108 131.329 29.1904 133.303 29.1904C135.336 29.1904 136.97 28.5262 138.203 27.1998C139.436 25.8735 140.053 24.0363 140.053 21.695C140.053 19.3514 139.436 17.5099 138.203 16.166C136.97 14.8221 135.336 14.1513 133.303 14.1513C131.329 14.1491 129.703 14.8287 128.424 16.1879Z" fill="#03334E"/>
<path d="M113.699 14.5942C112.559 12.5794 110.995 11.0426 109.006 9.97937C107.771 9.32169 106.438 8.86569 105.006 8.61577C104.868 8.59165 104.731 8.67057 104.679 8.80211L104.247 9.90045C104.206 10.0057 104.106 10.0736 103.994 10.0736H101.116C101.006 10.0736 100.904 10.0057 100.863 9.90045L100.396 8.721C100.346 8.59384 100.214 8.51492 100.08 8.53246C98.4463 8.75607 96.9341 9.23838 95.5472 9.97718C93.559 11.0404 91.9948 12.5772 90.8546 14.592C89.7144 16.6067 89.1432 18.9722 89.1432 21.6906C89.1432 24.4069 89.7144 26.7658 90.8546 28.7652C91.9948 30.7645 93.559 32.3035 95.5472 33.3799C97.5355 34.4585 99.7791 34.9957 102.276 34.9957C104.772 34.9957 107.016 34.4585 109.004 33.3799C110.993 32.3035 112.557 30.7645 113.697 28.7652C114.837 26.7658 115.408 24.4069 115.408 21.6906C115.41 18.9744 114.839 16.6089 113.699 14.5942ZM102.403 29.8613L98.6367 26.3383C98.2689 25.9941 98.1067 25.4811 98.2062 24.9856L100.882 11.7727C100.911 11.6346 101.032 11.5359 101.17 11.5359H103.935C104.074 11.5359 104.195 11.6346 104.223 11.7749L106.904 25.0251C107.001 25.5008 106.854 25.9941 106.514 26.3383L103.048 29.8503C102.873 30.0279 102.587 30.0345 102.403 29.8613Z" fill="#403FF2"/>
</g>
<defs>
<clipPath id="clip0_1_46">
<rect width="146.667" height="35" fill="white"/>
</clipPath>
</defs>
</svg>
