<svg width="80" height="80" viewBox="0 0 80 80" fill="none" xmlns="http://www.w3.org/2000/svg">
<path d="M18.75 12.0312C8.41125 12.0312 0 20.4425 0 30.7812C0 35.7252 1.9075 40.3902 5.37094 43.917C8.72375 47.3312 13.1684 49.3078 17.9295 49.5127C17.952 49.8102 17.9688 50.2202 17.9688 50.7812C17.9688 53.08 16.2206 60.1039 15.1186 63.9912L13.9909 67.9688H27.6759L28.5927 66.4917C28.9562 65.9058 37.5 51.8981 37.5 30.7812C37.5 20.4425 29.0887 12.0312 18.75 12.0312ZM24.092 61.7188H22.1967C23.0947 58.19 24.2188 53.2748 24.2188 50.7812C24.2188 48.8025 24.0719 47.2128 23.3545 45.8859C22.7156 44.7041 21.3794 43.2964 18.6384 43.2814L18.502 43.278C11.7463 43.147 6.25 37.5411 6.25 30.7812C6.25 23.8888 11.8575 18.2812 18.75 18.2812C25.6425 18.2812 31.25 23.8888 31.25 30.7812C31.25 46.3 26.1194 57.7866 24.092 61.7188Z" fill="#403FF2"/>
<path d="M61.25 12.0312C50.9113 12.0312 42.5 20.4425 42.5 30.7812C42.5 35.7252 44.4075 40.3902 47.8709 43.917C51.2237 47.3312 55.6684 49.3078 60.4295 49.5127C60.452 49.8102 60.4688 50.2202 60.4688 50.7812C60.4688 53.08 58.7206 60.1039 57.6186 63.9912L56.4909 67.9688H70.1759L71.0927 66.4917C71.4563 65.9058 80 51.8981 80 30.7812C80 20.4425 71.5887 12.0312 61.25 12.0312ZM66.592 61.7188H64.6967C65.5947 58.19 66.7188 53.2748 66.7188 50.7812C66.7188 48.8025 66.5719 47.2128 65.8545 45.8859C65.2156 44.7041 63.8794 43.2964 61.1384 43.2814L61.002 43.278C54.2462 43.147 48.75 37.5411 48.75 30.7812C48.75 23.8888 54.3575 18.2812 61.25 18.2812C68.1425 18.2812 73.75 23.8888 73.75 30.7812C73.75 46.3 68.6194 57.7866 66.592 61.7188Z" fill="#403FF2"/>
</svg>
